# xmcd CD database file
#
# Track frame offsets:
#	150
#	17250
#	33440
#	50913
#	67515
#	88045
#	103790
#	119603
#	136478
#	152855
#	162628
#	188483
#
# Disc length: 3301 seconds
#
# Revision: 4
# Processed by: cddbd v1.5PL3 Copyright (c) Steve Scherf et al.
# Submitted via: CDex 1.51
#
DISCID=9c0ce30c
DTITLE=Paul Burlison - Train Kept A-Rollin'
DYEAR=1997
DGENRE=Blues
TTITLE0=Train Kept A-Rollin'
TTITLE1=She's Hot
TTITLE2=Lonesome Tears in My Eyes
TTITLE3=We're Gonna Rock
TTITLE4=Love's like Rain
TTITLE5=Memphis Blues
TTITLE6=Love My Baby
TTITLE7=Hound Dog
TTITLE8=Trouble is I'm in Love with You
TTITLE9=Lonesome Train
TTITLE10=Boogie to Woodstock
TTITLE11=(hidden)
EXTD=YEAR: 1997
EXTT0=
EXTT1=
EXTT2=
EXTT3=
EXTT4=
EXTT5=
EXTT6=
EXTT7=
EXTT8=
EXTT9=
EXTT10=
EXTT11=
PLAYORDER=
